/* XPM */
static char *_dff0e4d0153411a8ee34163b5f95a7e[] = {
/* columns rows colors chars-per-pixel */
"64 64 185 2 ",
"   c #00007D",
".  c #18007B",
"X  c #050081",
"o  c #0A0085",
"O  c #1A0081",
"+  c #1A008B",
"@  c #17088C",
"#  c #1B0C8E",
"$  c #000C9E",
"%  c #1F0F91",
"&  c #1F1291",
"*  c #270088",
"=  c #3C008E",
"-  c #260091",
";  c #290092",
":  c #220E93",
">  c #320196",
",  c #3C0192",
"<  c #3A0992",
"1  c #330398",
"2  c #360C9A",
"3  c #380D9B",
"4  c #321B9B",
"5  c #001DA7",
"6  c #0121A7",
"7  c #0024A9",
"8  c #002BAB",
"9  c #0133AE",
"0  c #143CAF",
"q  c #183DAF",
"w  c #0237B1",
"e  c #0B36B0",
"r  c #053CB2",
"t  c #083FB3",
"y  c #003BB9",
"u  c #143DB3",
"i  c #183DB0",
"p  c #410091",
"a  c #421696",
"s  c #47269B",
"d  c #522E9F",
"f  c #422AA3",
"g  c #492DA6",
"h  c #4B31A8",
"j  c #5436A6",
"k  c #0242B6",
"l  c #0D45B6",
"z  c #0045BB",
"x  c #064ABB",
"c  c #1046B6",
"v  c #1B42B3",
"b  c #1648B6",
"n  c #1949B7",
"m  c #174CB9",
"M  c #184DB9",
"N  c #0253BD",
"B  c #1650BA",
"V  c #1B55BD",
"C  c #214BB8",
"Z  c #2A5DBF",
"A  c #5A43A9",
"S  c #766CBE",
"D  c #005AC6",
"F  c #0F5CC1",
"G  c #105EC1",
"H  c #275DC1",
"J  c #295EC1",
"K  c #335EC0",
"L  c #0062CE",
"P  c #136ECB",
"I  c #1470CC",
"U  c #006ED4",
"Y  c #007DD6",
"T  c #0074D8",
"R  c #007EDA",
"E  c #187BD5",
"W  c #2D63C2",
"Q  c #276DC8",
"!  c #3466C3",
"~  c #3269C5",
"^  c #3876CB",
"/  c #4B78CB",
"(  c #5479CB",
")  c #5C7BCB",
"_  c #7971C1",
"`  c #937EC7",
"'  c #0080D7",
"]  c #0085DE",
"[  c #008BDE",
"{  c #1A81D7",
"}  c #0090DF",
"|  c #0087E0",
" . c #008DE0",
".. c #0093E2",
"X. c #0D96E3",
"o. c #039AE4",
"O. c #0D9DE5",
"+. c #1497E3",
"@. c #139BE4",
"#. c #0DA2E8",
"$. c #16ADF0",
"%. c #27A6E8",
"&. c #25ABE9",
"*. c #2AADEA",
"=. c #32AFEC",
"-. c #36B6EE",
";. c #39B5EE",
":. c #36B7F0",
">. c #6384CF",
",. c #658DD3",
"<. c #6991D5",
"1. c #7697D6",
"2. c #43BAEF",
"3. c #5DBBED",
"4. c #69B7EB",
"5. c #2DC2FB",
"6. c #36C2FB",
"7. c #3AC4FB",
"8. c #3BCBFD",
"9. c #45C6FA",
"0. c #43CAFC",
"q. c #4CCBFC",
"w. c #55CDFB",
"e. c #58CEFC",
"r. c #5BD2FE",
"t. c #64C4F2",
"y. c #69C8F3",
"u. c #65D6FE",
"i. c #68D7FE",
"p. c #65D9FF",
"a. c #69DAFF",
"s. c #76D9FD",
"d. c #7DE0FF",
"f. c #8892CF",
"g. c #A093D2",
"h. c #82A2DB",
"j. c #8AA5DB",
"k. c #8CABDE",
"l. c #91AEDF",
"z. c #B9AEDC",
"x. c #93AEE1",
"c. c #9CB5E2",
"v. c #A4BAE4",
"b. c #C7B8E0",
"n. c #8EC4EC",
"m. c #85D2F4",
"M. c #8BD5F6",
"N. c #9AD7F6",
"B. c #96D8F7",
"V. c #9EDBF7",
"C. c #A8C2E8",
"Z. c #B9CAEA",
"A. c #BED2EE",
"S. c #A7DCF7",
"D. c #94E6FF",
"F. c #9BE9FF",
"G. c #A2E4FB",
"H. c #ABE2F9",
"J. c #A3E9FE",
"K. c #ABEDFF",
"L. c #B5E3F9",
"P. c #BAE4F9",
"I. c #BAECFD",
"U. c #BBF0FF",
"Y. c #C5CDE6",
"T. c #CAD0E7",
"R. c #C3D4EF",
"E. c #CBD3EB",
"W. c #D3D5EF",
"Q. c #C9D6F0",
"!. c #CBDAF1",
"~. c #CCECFB",
"^. c #DCE6F5",
"/. c #DEE8F6",
"(. c #DDECF9",
"). c #C4F3FF",
"_. c #DCF2FC",
"`. c #DBF7FE",
"'. c #E6E9F6",
"]. c #EAEAF6",
"[. c #F1EFF8",
"{. c #E7F3FB",
"}. c #EAF3FA",
"|. c #F7F1F8",
" X c #FFFFFF",
/* pixels */
" X X X X X X X X X X X X X X X X X X X X X X X X X X X X X X Xm.J. X X X X X X X X X X X X X X X X X X X X X X X X X X X X X X X",
" X X X X X X X X X X X X X X X X X X X X X X X X X X X X X X+.] r.9. X X X X X X X X X X X X X X X X X X X X X X X X X X X X X X",
" X X X X X X X X X X X X X X X X X X X X X X X X X X X X X+.X.} a.w.9. X X X X X X X X X X X X X X X X X X X X X X X X X X X X X",
" X X X X X X X X X X X X X X X X X X X X X X X X X X X XO.o.O.[ a.e.w.0. X X X X X X X X X X X X X X X X X X X X X X X X X X X X",
" X X X X X X X X X X X X X X X X X X X X X X X X X X XO.o.O.O.} p.w.w.w.9. X X X X X X X X X X X X X X X X X X X X X X X X X X X",
" X X X X X X X X X X X X X X X X X X X X X X X X X X+.o.O.O.O.} a.w.e.w.w.0. X X X X X X X X X X X X X X X X X X X X X X X X X X",
" X X X X X X X X X X X X X X X X X X X X X X X X XV.} O.O.O.O.} a.w.e.e.e.9.K. X X X X X X X X X X X X X X X X X X X X X X X X X",
" X X X X X X X X X X X X X X X X X X X X X X X X X_.' O.O.O.O. .a.w.e.e.e.6.`. X X X X X X X X X X X X X X X X X X X X X X X X X",
" X X X X X X X X X X X X X X X X X X X X X X X X X XM.[ O.O.O.} a.w.e.e.7.F. X X X X X X X X X X X X X X X X X X X X X X X X X X",
" X X X X X X X X X X X X X X X X X X X X X X/ D =. X XM.[ O.O.} a.w.e.7.D. X X%.#.d. X X X X X X X X X X X X X X X X X X X X X X",
" X X X X X X X X X X X X X X X X X X X X XW w P o.+. X XB.] O.} a.e.7.F. X XO...-.q.i. X X X X X X X X X X X X X X X X X X X X X",
" X X X X X X X X X X X X X X X X X X X XZ r m P #.o.+. X XB.] } a.7.F. X X+.o.X.-.e.q.u. X X X X X X X X X X X X X X X X X X X X",
" X X X X X X X X X X X X X X X X X X XZ t M b P #.O.o.+. X XV.T 8.J. X XX.o.O.o.-.r.e.9.p. X X X X X X X X X X X X X X X X X X X",
" X X X X X X X X X X X X X X X X X XH r m n b P #.O.O.o.+. X X X X X XX.o.O.O.X.-.r.e.w.q.u. X X X X X X X X X X X X X X X X X X",
" X X X X X X X X X X X X X X X X X>.w m m m n P #.O.O.O.o.X.V.H.H.V.X.o.O.O.O.o.:.e.e.e.e.9.D. X X X X X X X X X X X X X X X X X",
" X X X X X X X X X X X X X X X X XH c m m m n I #.O.O.O.O.o.' R R R o.O.O.O.O.O.-.r.e.e.e.q.u. X X X X X X X X X X X X X X X X X",
" X X X X X X X X X X X X X X X X Xc.7 M M M b P #.O.O.O...*. X X X X&. .O.O.O.X.-.e.e.e.e.6.U. X X X X X X X X X X X X X X X X X",
" X X X X X X X X X X X X X XA u Z. Xh.8 M M b P #.O.O...*. X[.A /  X X&.o.O.O.o.-.e.e.e.6.J. X~.@.d. X X X X X X X X X X X X X X",
" X X X X X X X X X X X X X& > i 7 C. Xh.8 M b P #.O...*. X[.o = N 9  X X&...O.X.:.r.e.7.J. X~.] O.r.0. X X X X X X X X X X X X X",
" X X X X X X X X X X X X% > , v B 7 v. Xh.7 m P #...*. X].o 2 , F m 9  X X&...O.:.e.6.J. X~.] O.O.u.w.0. X X X X X X X X X X X X",
" X X X X X X X X X X X& 1 3 , v M M 7 C. Xh.7 I o.*. X].o 2 3 = F m m 8  X X%. .-.7.J. X~.] O.O.O.p.w.w.0. X X X X X X X X X X X",
" X X X X X X X X X X% > 2 3 1 v M M M 7 C. X1.D =. X].X 2 2 2 , F m m m 9  X X3.2.U. X~.] O.@.O.#.p.e.w.w.0. X X X X X X X X X X",
" X X X X X X X X X4 > 2 2 2 1 v m M m M 6 R. Xy G. XX 3 2 2 2 = B m m m c 9  X X X X`.] #.O.O.X.@.a.w.w.w.w.q. X X X X X X X X X",
" X X X X X X X X X  2 2 2 2 , v m m M M l (  Xy K.` ; 2 3 2 2 p F m m m n w C. X X X4...O.O.O.O.O.p.w.e.w.e.5. X X X X X X X X X",
" X X X X X X X X X: > 2 2 2 > v m m m B 7 Z. Xy H.|.  3 2 3 2 = F m M m M 5  X X X XI.] O.O.O.O.O.p.w.e.e.w.7. X X X X X X X X X",
" X X X X X X` n. X X@ > 2 2 , v m m B 7 k. X!.N t. XY.X 3 3 2 = F m M n 6 ^. XW.4.~. XV.] O.O.o.O.p.w.e.w.7. X XP.G. X X X X X X",
" X X X X X# * k W  X X@ 1 2 < v B B 7 l. X{.7 P  .V. XT.X 3 2 p F M M 7 ^. XQ.$ o.] P. XV.[ O.O.O.a.w.w.7. X Xt.R 9.8. X X X X X",
" X X X X% 1 , F r W  X X@ 1 , v B 7 k. X{.7 n P #.[ V. XE.  3 p F M 7 ^. XQ.7 i X.O.] L. XV.[ O.O.i.w.7. X Xt.} ..w.w.0. X X X X",
" X X X& 1 2 , F M r ~  X X@ > v 7 k. X{.7 M b P #.O.| S. XT.X p F 6 ^. XQ.6 M q X.O.O.[ L. XN.] O.p.7. X Xt. .O.} w.e.w.0. X X X",
" X X& > 2 2 , F n M r ~  X Xs 7 v. X{.7 M M b P #.O.#.| V. XT.O y ^. XQ.6 M m q X.O.O.O.] P. XH...p. X Xy.} O.O.} q.e.w.w.0. X X",
" X& > 2 2 2 , F m m m r ~  X X X X{.7 m M m b P #.O.O.O.[ H. Xs Q  X!.7 M m m q X.O.O.O.O.] L. X X X Xt.} O.O.O.} w.e.e.e.q.0. X",
"g.- 2 2 2 2 , F m M n m l 8 B c c 9 M M m m b P #.O.O.O.O.|  Xd ^  Xl c M m m i @.O.O.O.O.O. .o.o.o.....@.O.O.@...q.e.w.e.w.q.G.",
"z.+ 2 2 2 2 , F m M M B 9 ! >.) >.w c M M n b P #.O.O.O.O. . Xd ^  XK l m M m q X.O.O.O.O.O. .3.3.3.=.} O.O.O.O...w.e.e.e.w.9.G.",
" Xf ; 2 2 2 , F m M M 7 x. X X X X Xe c n n b P #.O.O.O.] _. Xa Q  X Xw c M M q X.O.O.O.O.}  X X X X XN.| O.O.O...q.e.w.e.w.w. X",
" X Xf ; 2 2 , F m M 7 x. X'.o $ /  X Xe c m b P #.O.O.] _. XY.. y c. X X9 c c i @.O.O.o. . X X1.6 U /. XN.[ O.O...w.e.w.q.q. X X",
" X X Xf ; 2 , F M 7 l. X].X , v y W  X Xe c b P #.O.] _. XE.X p V 7 c. X X9 m i X.O.O. . X X,.9 M [ L /. XN.[ O...q.r.w.w. X X X",
" X X X Xf ; , G 7 k. X].o 2 , v B r ~  X Xw c P #.| _. XT.X 3 p G M 7 c. X X9 0 X.o.|  X X,.8 m M [ ' L (. XB.] ..w.w.q. X X X X",
" X X X X Xf . 7 x. X].X 3 2 1 v m m r ~  X Xe P ..{. XY.X 3 2 , G M B 7 c. X X6 Y }  X X<.9 M m m [ Y ' L (. XN.Y 6.q. X X X X X",
" X X X X X X^. X X'.o 2 2 2 , v m m m r ~  X}.z M. XY.X 3 2 2 p F n M M 7 x. X X X X X,.9 M m m M [ Y ' ' L (. X{.). X X X X X X",
" X X X X X X X X Xo 2 2 2 2 1 v m m m m w j. Xy G. X  3 2 2 2 = F m M M B 9 ) h.h.h./ w M m M m m [ Y ' ' ' D  X X X X X X X X X",
" X X X X X X X X X  2 2 2 2 , v m M M m l )  Xy G.z.+ 3 3 3 2 , G m m n m n 7 5 5 5 7 B M M m M m [ Y ' Y ' L _. X X X X X X X X",
" X X X X X X X X XA - 2 2 2 1 v m m M M 6 /. Xy G. X# > 2 2 3 = F m m m c 9  X X X X}.7 M M M c m [ Y ' ' Y {  X X X X X X X X X",
" X X X X X X X X X Xf - 2 2 , v B m M 7 ^. Xc.D *. X X# > 2 2 = F m m c 9  X XS.i.). X}.7 M n m m [ Y ' Y E  X X X X X X X X X X",
" X X X X X X X X X X Xf ; 3 , v m M 7 ^. XR.6 I o.&. X X# > 2 , F m m 9  X Xy.' q.7.K. X}.7 m m m [ Y Y E  X X X X X X X X X X X",
" X X X X X X X X X X X Xf ; , q M 7 ^. XR.6 n P #.o.&. X X# 1 p F c 9  X Xy.}  .q.r.7.H. X}.7 m m [ Y E  X X X X X X X X X X X X",
" X X X X X X X X X X X X Xf * 0 6 ^. XR.6 M m P #.O...*. X X% p F 9  X Xy.} #...w.r.w.7.K. X}.6 l ' E  X X X X X X X X X X X X X",
" X X X X X X X X X X X X X Xf.) (. XA.7 M n b P #.O.O...&. X X. k  X Xy.| O.O...w.w.w.e.6.K. X}.( 4. X X X X X X X X X X X X X X",
" X X X X X X X X X X X X X X X X XQ.5 M M m b P #.O.O.O.} ;. Xj ^  Xm.[ O.O.O. .w.w.w.w.e.6.U. X X X X X X X X X X X X X X X X X",
" X X X X X X X X X X X X X X X X X! c m m m b P #.O.O.O.O.]  Xd ^  X .O.O.O.O...w.e.w.e.w.w.q. X X X X X X X X X X X X X X X X X",
" X X X X X X X X X X X X X X X X X1.w m m m b P #.O.O.O.X.o. Xd ^  X%.o.O.O.O...w.e.e.e.w.q.s. X X X X X X X X X X X X X X X X X",
" X X X X X X X X X X X X X X X X X XJ t m M m P #.O.O.o. . X X< N  X X..o.O.O...w.w.e.e.q.q. X X X X X X X X X X X X X X X X X X",
" X X X X X X X X X X X X X X X X X X XJ r n b P #.O.O. . X X_ * N W  X XX.O.O. .w.w.e.q.q. X X X X X X X X X X X X X X X X X X X",
" X X X X X X X X X X X X X X X X X X X XW r n P #.o. . X X_ + = G r W  X XX.o.} w.w.w.q. X X X X X X X X X X X X X X X X X X X X",
" X X X X X X X X X X X X X X X X X X X X X! w P #. . X XS + 3 p B B t J  X XX.} w.q.w. X X X X X X X X X X X X X X X X X X X X X",
" X X X X X X X X X X X X X X X X X X X X X X/ z O. X XS + 3 2 , F m M t Z  X XX.$.r. X X X X X X X X X X X X X X X X X X X X X X",
" X X X X X X X X X X X X X X X X X X X X X X X X X XS + 2 2 2 = F m m m r Z  X X X X X X X X X X X X X X X X X X X X X X X X X X",
" X X X X X X X X X X X X X X X X X X X X X X X X X].  3 2 2 3 = F m m m m 9 c. X X X X X X X X X X X X X X X X X X X X X X X X X",
" X X X X X X X X X X X X X X X X X X X X X X X X XW.o 2 2 2 2 p F m m m M w k. X X X X X X X X X X X X X X X X X X X X X X X X X",
" X X X X X X X X X X X X X X X X X X X X X X X X X Xh - 2 3 2 = B m m m l b  X X X X X X X X X X X X X X X X X X X X X X X X X X",
" X X X X X X X X X X X X X X X X X X X X X X X X X X Xg ; 2 2 , F B m x v  X X X X X X X X X X X X X X X X X X X X X X X X X X X",
" X X X X X X X X X X X X X X X X X X X X X X X X X X X Xh - 2 = F m l n  X X X X X X X X X X X X X X X X X X X X X X X X X X X X",
" X X X X X X X X X X X X X X X X X X X X X X X X X X X X Xh - , F l C  X X X X X X X X X X X X X X X X X X X X X X X X X X X X X",
" X X X X X X X X X X X X X X X X X X X X X X X X X X X X X Xj . k C  X X X X X X X X X X X X X X X X X X X X X X X X X X X X X X",
" X X X X X X X X X X X X X X X X X X X X X X X X X X X X X X Xb.v. X X X X X X X X X X X X X X X X X X X X X X X X X X X X X X X"
};
