/* XPM */
static char *_00634064f90411bc620572a8889fe0c[] = {
/* columns rows colors chars-per-pixel */
"16 16 127 2 ",
"   c #1B0079",
".  c #22007A",
"X  c #24007A",
"o  c #0C0085",
"O  c #1D008E",
"+  c #130091",
"@  c #1B0094",
"#  c #240081",
"$  c #330081",
"%  c #220091",
"&  c #0019A0",
"*  c #001DA2",
"=  c #0021A6",
"-  c #0024A7",
";  c #0027A9",
":  c #0029A9",
">  c #002FAC",
",  c #0F2FAA",
"<  c #0030AC",
"1  c #003AB1",
"2  c #003BB3",
"3  c #0039B4",
"4  c #003CB5",
"5  c #0042B7",
"6  c #0046B9",
"7  c #0048BB",
"8  c #1650BE",
"9  c #1A51BC",
"0  c #5844A9",
"q  c #5B51B2",
"w  c #6451B0",
"e  c #6B58B4",
"r  c #6F65BC",
"t  c #6E69BD",
"y  c #7864BB",
"u  c #0062CC",
"i  c #006ECF",
"p  c #007ED9",
"a  c #5178C9",
"s  c #5A7ECC",
"d  c #8166B5",
"f  c #887FBD",
"g  c #0080DB",
"h  c #0886DB",
"j  c #008CDF",
"k  c #0092E2",
"l  c #0294E3",
"z  c #0099E9",
"x  c #009DEA",
"c  c #1894E0",
"v  c #1298E4",
"b  c #00A2EE",
"n  c #00AAF1",
"m  c #00B4F6",
"M  c #2CBCF5",
"N  c #5C8BD4",
"B  c #4598DE",
"V  c #5C97DB",
"C  c #6080CE",
"Z  c #7080CC",
"A  c #53ACE5",
"S  c #77BEED",
"D  c #30C3F9",
"F  c #43C6F9",
"G  c #40CAFD",
"H  c #47CBFC",
"J  c #4ADAFF",
"K  c #55D3FF",
"L  c #5BD7FF",
"P  c #6BD1F7",
"I  c #7DD1F7",
"U  c #7AD7FC",
"Y  c #73D8FD",
"T  c #7ADEFF",
"R  c #7CDDFE",
"E  c #66E1FF",
"W  c #869AD2",
"Q  c #819CDB",
"!  c #879FDC",
"~  c #999FD3",
"^  c #A09FCA",
"/  c #9EA0D3",
"(  c #95A9DF",
")  c #98AADF",
"_  c #B0AECE",
"`  c #A7AFD5",
"'  c #A0A7DB",
"]  c #A8A0D8",
"[  c #ABA8DB",
"{  c #A3BEDB",
"}  c #B2B9D9",
"|  c #B0BEDC",
" . c #8FB2E2",
".. c #91B1E4",
"X. c #9FB0E0",
"o. c #95B8E4",
"O. c #A3B5E2",
"+. c #ABB9E4",
"@. c #AABBE7",
"#. c #A9BEE8",
"$. c #B4BAE4",
"%. c #A9C8DE",
"&. c #92C5ED",
"*. c #8CC9F0",
"=. c #92CFF1",
"-. c #97CFF5",
";. c #88D6F6",
":. c #8BD6F9",
">. c #84DCFD",
",. c #8BDFFE",
"<. c #A1C6E7",
"1. c #ABC8E6",
"2. c #AFCBED",
"3. c #B3C6EB",
"4. c #B4CDEE",
"5. c #BACBED",
"6. c #ACD3F1",
"7. c #ADDCF8",
"8. c #B8D5F3",
"9. c #BED9F2",
"0. c #B0DFF9",
"q. c #92E7FF",
"w. c #BBE5F9",
"e. c #B4E8FB",
"r. c #C4EDFC",
"t. c #CDF2FF",
"y. c gray100",
/* pixels */
"y.y.y.y.y.y.y.A q.y.y.y.y.y.y.y.",
"y.y.y.y.y.y.S g L ,.y.y.y.y.y.y.",
"y.y.y.y.y.a t.h E 9.U y.y.y.y.y.",
"y.y.y.y.s < z -.=.p H ,.y.y.y.y.",
"y.y.y.q O.; m _ 3.k G 7.P y.y.y.",
"y.y.0 % 1 Q {   3 $.e.g F Y y.y.",
"y.t | o 9 ) <.X 6 ] 0.c D r.I y.",
"e @ 7 W X.; n ~ ..& x *.;.j M >.",
"y + 8 ` X.- n / o.* x 6.@.v M ,.",
"y.W } o 7 ( 1.. 5 ' 8., u 5.:.y.",
"y.y.w O 1 ! %.  4 '  .= i B y.y.",
"y.y.y.r @.: m ^ #.l J 4.V y.y.y.",
"y.y.y.y.C > b [ &.p K R y.y.y.y.",
"y.y.y.y.y.a w.$ 6 2.T y.y.y.y.y.",
"y.y.y.y.y.y.f # 7 Z y.y.y.y.y.y.",
"y.y.y.y.y.y.y.d N y.y.y.y.y.y.y."
};
