/* XPM */
static char *d3a97951699d4eccb1f79fc0daefe308[] = {
/* columns rows colors chars-per-pixel */
"32 32 175 2 ",
"   c #050074",
".  c #02007B",
"X  c #16007B",
"o  c #030082",
"O  c #00008C",
"+  c #19008B",
"@  c #1E168E",
"#  c #020193",
"$  c #110497",
"%  c #260082",
"&  c #23008E",
"*  c #3E008E",
"=  c #300E8A",
"-  c #22158C",
";  c #32118A",
":  c #250091",
">  c #2C0093",
",  c #340499",
"<  c #380B9A",
"1  c #3D259C",
"2  c #3D2A9E",
"3  c #000FA1",
"4  c #001FA6",
"5  c #2C1FA3",
"6  c #0027AA",
"7  c #002DAC",
"8  c #1521A4",
"9  c #0131AE",
"0  c #0A30AB",
"q  c #1236AE",
"w  c #1939AE",
"e  c #002FB0",
"r  c #0035B2",
"t  c #013CB2",
"y  c #0B3AB2",
"u  c #1037B0",
"i  c #1539B1",
"p  c #1C3CB3",
"a  c #3022A4",
"s  c #2831AC",
"d  c #223DB1",
"f  c #40008F",
"g  c #400090",
"h  c #583BAB",
"j  c #0443B7",
"k  c #0D45B6",
"l  c #0F49B7",
"z  c #024CBB",
"x  c #094ABA",
"c  c #1047B6",
"v  c #1A45B7",
"b  c #1349B7",
"n  c #1849B7",
"m  c #184CB8",
"M  c #0F51BB",
"N  c #1554BD",
"B  c #2347B7",
"V  c #3144B2",
"C  c #2C55BC",
"Z  c #375CBF",
"A  c #5B42AF",
"S  c #764DAC",
"D  c #6E61B7",
"F  c #7370B8",
"G  c #0258C1",
"H  c #0D5EC2",
"J  c #1C55C0",
"K  c #0F61C3",
"L  c #0063CE",
"P  c #0A6CCA",
"I  c #0C70CD",
"U  c #0077D4",
"Y  c #007ADA",
"T  c #3F63C1",
"R  c #3E6BC5",
"E  c #3679CB",
"W  c #406DC6",
"Q  c #4C73C8",
"!  c #8A76BF",
"~  c #847CC1",
"^  c #0085DD",
"/  c #008BDF",
"(  c #0091DF",
")  c #328CDB",
"_  c #0085E0",
"`  c #008CE1",
"'  c #118FE0",
"]  c #0193E2",
"[  c #049AE4",
"{  c #0D9CE4",
"}  c #009EE8",
"|  c #0C9DEA",
" . c #1A95E3",
".. c #109EE5",
"X. c #03A7EB",
"o. c #0DA6EA",
"O. c #0DA9EC",
"+. c #1EA6EA",
"@. c #2BA4E7",
"#. c #27AEED",
"$. c #28AEED",
"%. c #3FA3E6",
"&. c #24B8F5",
"*. c #3CBDF3",
"=. c #4C83D0",
"-. c #5588D2",
";. c #688DD3",
":. c #7494D6",
">. c #4CADE8",
",. c #49B7EC",
"<. c #4CBCEE",
"1. c #64A6E3",
"2. c #2DC2FB",
"3. c #37C4FA",
"4. c #3BC5FC",
"5. c #4CC4F5",
"6. c #48C9F8",
"7. c #4BCAFB",
"8. c #56CBF6",
"9. c #54CEFC",
"0. c #58CEFC",
"q. c #5DD2FD",
"w. c #55D8FF",
"e. c #6DC2EF",
"r. c #71C2EF",
"t. c #79C7F1",
"y. c #63D3FD",
"u. c #6BDBFF",
"i. c #7DD2F6",
"p. c #75DAFF",
"a. c #8A91CF",
"s. c #868CD0",
"d. c #8394D3",
"f. c #819FDC",
"g. c #B493C6",
"h. c #83A2DC",
"j. c #8BA3DF",
"k. c #95AEDF",
"l. c #9AB7E5",
"z. c #A3B6E3",
"x. c #A3BAE5",
"c. c #B6BAE0",
"v. c #C398CD",
"b. c #8AD9F9",
"n. c #9CD7F5",
"m. c #94D9F7",
"M. c #A7C9EC",
"N. c #B3C6E9",
"B. c #ADD6F3",
"V. c #A6DAF7",
"C. c #91E7FF",
"Z. c #A2E5FE",
"A. c #A3EBFF",
"S. c #B2E7FB",
"D. c #D2CFE7",
"F. c #D2D9EE",
"G. c #C0D9F4",
"H. c #D3DEF2",
"J. c #F4DFEA",
"K. c #C1E2F8",
"L. c #D5E4F5",
"P. c #CEFDFF",
"I. c #D6F2FE",
"U. c #E6E3ED",
"Y. c #FAE4ED",
"T. c #E7E6F5",
"R. c #E6EAF7",
"E. c #F8EBF5",
"W. c #E4F2FB",
"Q. c #E3FCFF",
"!. c #ECFEFF",
"~. c #FFF1F5",
"^. c #F9F7FB",
"/. c #F4FFFF",
"(. c #FFFFFF",
/* pixels */
"(.(.(.(.(.(.(.(.(.(.(.(.(.(.(.>.C.(.(.(.(.(.(.(.(.(.(.(.(.(.(.(.",
"(.(.(.(.(.(.(.(.(.(.(.(.(.(.@.^ u.q.(.(.(.(.(.(.(.(.(.(.(.(.(.(.",
"(.(.(.(.(.(.(.(.(.(.(.(.(.@.] / u.7.q.(.(.(.(.(.(.(.(.(.(.(.(.(.",
"(.(.(.(.(.(.(.(.(.(.(.(./.Y ..( u.0.&./.(.(.(.(.(.(.(.(.(.(.(.(.",
"(.(.(.(.(.(.(.(.(.(.(.h./.m.` / u.4.A.W.m.(.(.(.(.(.(.(.(.(.(.(.",
"(.(.(.(.(.(.(.(.(.(.R t ` (.n.U w.A.^.Y 3.p.(.(.(.(.(.(.(.(.(.(.",
"(.(.(.(.(.(.(.(.(.R t N O.^ (.G.P.^.^ [ 8.7.p.(.(.(.(.(.(.(.(.(.",
"(.(.(.(.(.(.(.(.k.7 m J o.{ / >.%.` { ] 5.0.4.S.(.(.(.(.(.(.(.(.",
"(.(.(.(.(.(.(.a.(.9 b N O.( 5.Y.(.,.] [ 7.0.3.(.m.(.(.(.(.(.(.(.",
"(.(.(.(.(.(.1 $ y (.7 N } 5.J.  7 ~.<.^ 5.4.(.' &.q.(.(.(.(.(.(.",
"(.(.(.(.(.2 > 5 M u (.j 9.J.o g K 4 ~.,.3.(. .] *.9.0.(.(.(.(.(.",
"(.(.(.(.F : < 5 N l C j.I.. < * H m 3 (.(.@.} [ *.0.7.b.(.(.(.(.",
"(.(.(.F.T.. < 5 N 7 z.:./.- , * H l p (.W.V./ { *.q.2.!.Q.(.(.(.",
"(.(.1 # =.(.. 5 9 k.R.9 o.(.- * G p (.8 ^ K.B.^ *.2.(.r.] y.(.(.",
"(.2 > s t =.(.O x.R.4 N X.] (.; J (.i q o./ K.B.O.(.t.` #.9.0.(.",
"D : < s m t W l.f.6 m N o.[ | v.B.v l w o.{ ^ e.m.,.] { #.0.7.b.",
"F & , s N 7 :.H.N.6 b N o.[ +.v.M.T j w ..{ ` S.I.t.` { #.q.7.b.",
"(.h & s 7 l.U.o -.(.4 N X. .(.= x (.C 0 o.^ (.d.e T.V.^ #.9.y.(.",
"(.(.h O l.U.o a t =.(.9 +.(.@ * M 9 (.V ^ (.:.7 I L T.n.` u.(.(.",
"(.(.(.(.D.. < 5 N r :.f./.@ , * K b y L.T.;.9 v P ^ L H.(.(.(.(.",
"(.(.(.(.! + < 5 N k T j.Q.. < * K N 6 s.~ B k n P ^ U 1.(.(.(.(.",
"(.(.(.(.(.h & 5 l v (.j 5.~.o * K 4 E.m.w.(.B k P U ) (.(.(.(.(.",
"(.(.(.(.(.(.h # v (.q M } 5.~.X r E.i.^ q.4.(.d z ) (.(.(.(.(.(.",
"(.(.(.(.(.(.(.c.(.q c N O.] 8.g.x.b./ ( q.0.4.(.M.(.(.(.(.(.(.(.",
"(.(.(.(.(.(.(.(.z.7 m N O...^ v.N._ { ( q.0.6.Z.(.(.(.(.(.(.(.(.",
"(.(.(.(.(.(.(.(.(.R r N O.^ (.S E (.^ ( q.7.q.(.(.(.(.(.(.(.(.(.",
"(.(.(.(.(.(.(.(.(.(.W j ] (.~ % z Q (.Y 9.y.(.(.(.(.(.(.(.(.(.(.",
"(.(.(.(.(.(.(.(.(.(.(.:.Q.~ + g K t Q !.b.(.(.(.(.(.(.(.(.(.(.(.",
"(.(.(.(.(.(.(.(.(.(.(.(.(.  < f K m 4 L.(.(.(.(.(.(.(.(.(.(.(.(.",
"(.(.(.(.(.(.(.(.(.(.(.(.(.A : f H t Z (.(.(.(.(.(.(.(.(.(.(.(.(.",
"(.(.(.(.(.(.(.(.(.(.(.(.(.(.A % z Z (.(.(.(.(.(.(.(.(.(.(.(.(.(.",
"(.(.(.(.(.(.(.(.(.(.(.(.(.(.(.! ;.(.(.(.(.(.(.(.(.(.(.(.(.(.(.(."
};
